<?xml version="1.0" encoding="utf-8"?>
<!-- Generator: Adobe Illustrator 21.0.2, SVG Export Plug-In . SVG Version: 6.00 Build 0)  -->
<svg version="1.1" id="Слой_1" xmlns="http://www.w3.org/2000/svg" xmlns:xlink="http://www.w3.org/1999/xlink" x="0px" y="0px"
	 viewBox="0 0 1366 768" style="enable-background:new 0 0 1366 768;" xml:space="preserve">
<style type="text/css">
	.st0{fill:url(#SVGID_1_);}
	.st1{fill:url(#SVGID_2_);}
	.st2{fill:#000333;}
</style>
<g>
	<linearGradient id="SVGID_1_" gradientUnits="userSpaceOnUse" x1="221.4268" y1="137.1822" x2="221.4268" y2="632.1237">
		<stop  offset="0" style="stop-color:#01C36D"/>
		<stop  offset="0.25" style="stop-color:#52C398"/>
		<stop  offset="0.65" style="stop-color:#009CAB"/>
		<stop  offset="1" style="stop-color:#026482"/>
	</linearGradient>
	<path class="st0" d="M393.9,137.2v117H139.1v45.4c0,0,19.2,0,116.4,0c99.8,0,165.2,82.1,165.2,166.7c0,83.1-67.9,165.8-165.2,165.8
		c-96.7,0-233.2,0-233.2,0l116.9-117l115.5,0c32.2,0,49.3-25.4,49.4-50.4c0.1-24.3-20.5-48.2-49.4-48.2H139.3L22.1,299.5V137.2
		H393.9z"/>
	<linearGradient id="SVGID_2_" gradientUnits="userSpaceOnUse" x1="139.3627" y1="357.4304" x2="255.3204" y2="357.4304">
		<stop  offset="0" style="stop-color:#00A085"/>
		<stop  offset="1" style="stop-color:#00A085;stop-opacity:0"/>
	</linearGradient>
	<rect x="139.4" y="299.2" class="st1" width="116" height="116.4"/>
</g>
<g>
	<path class="st2" d="M578.6,212.1v23.2h35.1c14.8,0,26.3,3.7,34.5,11.1c8.2,7.4,12.2,17.4,12.2,30.1c0,13.4-4.4,23.8-13.1,31.1
		c-8.7,7.3-20.9,11-36.5,11h-61.5V185.7h101.9v26.4H578.6z M610.7,259.5h-32.1v32.7h32.3c13.5,0,20.3-5.6,20.3-16.9
		C631.2,264.8,624.3,259.5,610.7,259.5z"/>
	<path class="st2" d="M799,185.7v132.9h-28.9v-87.1l-58.1,87.1h-27.5V185.7h28.9v87.1l58.5-87.1H799z"/>
	<path class="st2" d="M878.2,183.4c14.2,0,25.7,3.4,34.6,10.1c8.9,6.7,13.4,15.3,13.4,25.6c0,14.2-7.2,24.4-21.5,30.6
		c16.6,5.3,24.9,15.8,24.9,31.3c0,11.6-4.6,21.2-13.8,28.7c-9.2,7.5-21.4,11.2-36.7,11.2c-13.5,0-24.9-1.8-34.1-5.5
		c-9.2-3.7-17.5-9.2-25-16.7l15.6-20.3c11.5,11.3,25.6,16.9,42.3,16.9c6.5,0,11.8-1.4,16-4.3c4.2-2.8,6.4-6.7,6.4-11.7
		c0-5.3-2.4-9.2-7.1-11.8c-4.7-2.5-11.2-3.8-19.3-3.8h-15.4v-24.3h15c15.8,0,23.7-5.1,23.7-15.4c0-4.6-2-8.2-5.9-10.8
		c-3.9-2.7-9.1-4-15.6-4c-14.4,0-26.4,4.9-35.9,14.6l-15.4-18.6C838.5,190.7,856.4,183.4,878.2,183.4z"/>
	<path class="st2" d="M955,318.6V185.7h29.2v52.6h53.9v-52.6h29.2v132.9h-29.2v-53.3h-53.9v53.3H955z"/>
	<path class="st2" d="M1099.3,318.6V185.7h100.2v26h-71.2v27h62.6v26h-62.6v27.9h72.1v26H1099.3z"/>
	<path class="st2" d="M1288.8,320.8c-19.5,0-35.7-6.6-48.7-19.8c-13-13.2-19.5-29.5-19.5-48.9c0-19.2,6.5-35.5,19.6-48.8
		c13-13.3,29.6-19.9,49.7-19.9c11.5,0,21.2,1.9,29,5.6c7.8,3.7,15.3,9.1,22.4,16l-17.5,20.1c-5.7-5.2-11-9-16-11.3
		c-5-2.3-11-3.5-18.1-3.5c-11.1,0-20.3,4-27.6,12.1c-7.3,8-10.9,17.9-10.9,29.7c0,11.6,3.6,21.5,10.9,29.6
		c7.3,8.1,16.5,12.1,27.6,12.1c7.1,0,13.2-1.3,18.4-3.8c5.2-2.5,10.7-6.5,16.5-11.8l18.6,19.9c-7.2,7.7-15,13.4-23.4,17.1
		C1311.4,319,1301.1,320.8,1288.8,320.8z"/>
</g>
<g>
	<path class="st2" d="M549.3,589.4V387.3h35v147.6l102.2-147.6h33.3v202.2h-35V442.3L582.9,589.4H549.3z"/>
	<path class="st2" d="M748.8,558h20c8.8-17.2,15.3-37,19.6-59.3s6.4-49.9,6.4-82.7v-28.7h141V558h27.9l-4.9,75h-32.1v-43.6H784.3
		L781,633h-32.1V558z M807.1,558h93.3V419.7h-71.2v23.1C829.2,489.8,821.8,528.2,807.1,558z"/>
	<path class="st2" d="M991.9,589.4V387.3h149.9v31.4h-114.3V472h101.4v31.4h-101.4V558h115.7v31.4H991.9z"/>
	<path class="st2" d="M1169.5,589.4l55.1-76c-14.7-4-26.3-11.3-35-21.7c-8.6-10.5-13-23.7-13-39.9c0-19.8,6.7-35.5,20.1-47.1
		c13.4-11.6,31.7-17.5,55-17.5h89.6v202.2h-35v-69.9h-44.8l-50.3,69.9H1169.5z M1212.2,454.1c0,10.5,3.8,18.9,11.4,25.1
		c7.6,6.3,17.8,9.4,30.5,9.4h52.2v-68.9h-51.7c-13.4,0-23.8,3-31.3,9.1C1215.9,434.8,1212.2,443.2,1212.2,454.1z"/>
</g>
</svg>
